<svg width="100.000000" height="100.000000" viewBox="0 0 100 100" fill="none" xmlns="http://www.w3.org/2000/svg" xmlns:xlink="http://www.w3.org/1999/xlink">
	<desc>
			Created with Pixso.
	</desc>
	<defs>
		<clipPath id="clip28_14">
			<rect id="Мальчик" width="100.000000" height="100.000000" fill="white" fill-opacity="0"/>
		</clipPath>
	</defs>
	<g clip-path="url(#clip28_14)">
		<circle id="circle" cx="50.000000" cy="20.833252" r="12.500000" fill="#000000" fill-opacity="0"/>
		<circle id="circle" cx="50.000000" cy="20.833252" r="12.500000" stroke="#000000" stroke-opacity="1.000000" stroke-width="1.500000" stroke-linejoin="round"/>
		<path id="path" d="M62.5 75L37.5 75L20.83 33.33L79.16 33.33L62.5 75Z" fill="#000000" fill-opacity="0" fill-rule="nonzero"/>
		<path id="path" d="M37.5 75L20.83 33.33L79.16 33.33L62.5 75L37.5 75Z" stroke="#000000" stroke-opacity="1.000000" stroke-width="1.500000" stroke-linejoin="round"/>
		<path id="path" d="M55.52 75.01L55.5 75C55.5 74.58 55.83 74.25 56.25 74.25C56.67 74.25 57 74.58 57 75L56.98 75.01L55.52 75.01ZM56.98 91.64L57 91.66C57 92.08 56.67 92.41 56.25 92.41C55.83 92.41 55.5 92.08 55.5 91.66L55.52 91.64L56.98 91.64Z" fill="#000000" fill-opacity="0" fill-rule="nonzero"/>
		<path id="path" d="M56.25 75L56.25 91.66" stroke="#000000" stroke-opacity="1.000000" stroke-width="1.500000" stroke-linejoin="round" stroke-linecap="round"/>
		<path id="path" d="M43.02 75.01L43 75C43 74.58 43.33 74.25 43.75 74.25C44.17 74.25 44.5 74.58 44.5 75L44.48 75.01L43.02 75.01ZM44.48 91.64L44.5 91.66C44.5 92.08 44.17 92.41 43.75 92.41C43.33 92.41 43 92.08 43 91.66L43.02 91.64L44.48 91.64Z" fill="#000000" fill-opacity="0" fill-rule="nonzero"/>
		<path id="path" d="M43.75 75L43.75 91.66" stroke="#000000" stroke-opacity="1.000000" stroke-width="1.500000" stroke-linejoin="round" stroke-linecap="round"/>
	</g>
</svg>
